<svg xmlns="http://www.w3.org/2000/svg" xmlns:xlink="http://www.w3.org/1999/xlink" width="1920" height="1080" viewBox="0 0 1920 1080" fill="none"><g opacity="1"  transform="translate(0 0)  rotate(0)"><g opacity="1"  transform="translate(0 0)  rotate(0)"><mask id="mask-0" fill="white"><path id="矩形 10" fill-rule="evenodd" style="fill:#FFFFFF" d="M0 1080L1920 1080L1920 0L0 0L0 1080Z"></path></mask><path id="矩形 10" fill-rule="evenodd" style="fill:#FFFFFF" opacity="1" d="M0 1080L1920 1080L1920 0L0 0L0 1080Z"></path><g mask="url(#mask-0)"><path id="三角形 2" fill-rule="evenodd" style="fill:#B4D0F5" d="M2151.75 1270.39L2151.75 -523.403C2151.75 -594.443 2065.76 -629.923 2015.67 -579.543L1123.82 317.347C1092.94 348.407 1092.94 398.567 1123.82 429.627L2015.67 1326.53C2065.76 1376.91 2151.75 1341.43 2151.75 1270.39Z"></path></g><g mask="url(#mask-0)"><path id="三角形 2" fill-rule="evenodd" style="fill:#2D81F3" d="M1992.75 1620.53L1992.75 -200.26C1992.76 -266.34 1912.78 -299.34 1866.19 -252.48L960.92 657.92C932.2 686.8 932.2 733.46 960.92 762.34L1866.19 1672.74C1912.78 1719.59 1992.75 1686.6 1992.75 1620.53Z"></path></g><g mask="url(#mask-0)"><path id="三角形 2" fill-rule="evenodd" style="fill:#B4D0F5" d="M2607.75 1708.39L2607.75 -85.4033C2607.75 -156.443 2521.76 -191.923 2471.67 -141.543L1579.82 755.347C1548.94 786.407 1548.94 836.567 1579.82 867.627L2471.67 1764.53C2521.76 1814.91 2607.75 1779.43 2607.75 1708.39Z"></path></g></g></g></svg>